{"accessors" : [{"bufferView" : 0, "byteOffset" : 0, "componentType" : 5123, "count" : 210, "type" : "SCALAR", "max" : [209], "min" : [0]}, {"bufferView" : 1, "byteOffset" : 0, "componentType" : 5126, "count" : 210, "type" : "VEC3", "max" : [14.069378852844238, 6.801399230957031, 0.698390007019043], "min" : [7.382376194000244, -2.4904749393463135, 0.574399471282959], "name" : "POSITION"}, {"bufferView" : 1, "byteOffset" : 12, "componentType" : 5126, "count" : 210, "type" : "VEC3", "max" : [1.0000039339065552, 1.0000035762786865, 1.7069804698621738E-06], "min" : [-1.0000039339065552, -1.0000035762786865, -1.0000044107437134], "name" : "NORMAL"}, {"bufferView" : 1, "byteOffset" : 24, "componentType" : 5126, "count" : 210, "type" : "VEC2", "max" : [0.9986040592193604, -0.016381600871682167], "min" : [0.023594260215759277, -0.9837767481803894], "name" : "TEXCOORD_0"}, {"bufferView" : 0, "byteOffset" : 420, "componentType" : 5123, "count" : 66, "type" : "SCALAR", "max" : [65], "min" : [0]}, {"bufferView" : 2, "byteOffset" : 0, "componentType" : 5126, "count" : 66, "type" : "VEC3", "max" : [14.069378852844238, 6.801399230957031, 0.698390007019043], "min" : [7.382376194000244, -2.4904749393463135, 0.698390007019043], "name" : "POSITION"}, {"bufferView" : 2, "byteOffset" : 12, "componentType" : 5126, "count" : 66, "type" : "VEC3", "max" : [2.0950046746293083E-06, 0, 1.0000044107437134], "min" : [-2.0947938992321724E-06, 0, 1.0000042915344238], "name" : "NORMAL"}, {"bufferView" : 2, "byteOffset" : 24, "componentType" : 5126, "count" : 66, "type" : "VEC2", "max" : [0.9986040592193604, -0.016381600871682167], "min" : [0.023594260215759277, -0.9837767481803894], "name" : "TEXCOORD_0"}], "asset" : {"generator" : "Aspose.3D 22.1", "version" : "2.0"}, "buffers" : [{"uri" : "data:application/octet-stream;base64,", "byteLength" : 9396}], "bufferViews" : [{"buffer" : 0, "byteOffset" : 0, "byteLength" : 552, "target" : 34963}, {"buffer" : 0, "byteOffset" : 556, "byteLength" : 6720, "byteStride" : 32, "target" : 34962}, {"buffer" : 0, "byteOffset" : 7280, "byteLength" : 2112, "byteStride" : 32, "target" : 34962}], "images" : [{"uri" : "data:image/jpeg;base64,"}, {"uri" : "data:image/jpeg;base64,"}], "materials" : [{"name" : "", "pbrMetallicRoughness" : {"baseColorFactor" : [1, 1, 1, 1], "baseColorTexture" : {"index" : 0, "texCoord" : 0}, "metallicFactor" : 0, "roughnessFactor" : 0}, "emissiveFactor" : [0, 0, 0], "alphaMode" : "OPAQUE", "doubleSided" : false}, {"name" : "", "pbrMetallicRoughness" : {"baseColorFactor" : [1, 1, 1, 1], "baseColorTexture" : {"index" : 1, "texCoord" : 0}, "metallicFactor" : 0, "roughnessFactor" : 0}, "emissiveFactor" : [0, 0, 0], "alphaMode" : "OPAQUE", "doubleSided" : false}], "meshes" : [{"primitives" : [{"attributes" : {"POSITION" : 1, "NORMAL" : 2, "TEXCOORD_0" : 3}, "indices" : 0, "material" : 0, "mode" : 4}, {"attributes" : {"POSITION" : 5, "NORMAL" : 6, "TEXCOORD_0" : 7}, "indices" : 4, "material" : 1, "mode" : 4}]}], "nodes" : [{"matrix" : [2.220446049250313E-16, 0, -1.0000000000000002, 0, 0, 1, 0, 0, 1.0000000000000002, 0, 2.220446049250313E-16, 0, 241.76176418286548, -9.817114354470021, -281.8323879574446, 1], "mesh" : 0, "name" : "pCube5"}], "samplers" : [{"magFilter" : 9729, "minFilter" : 9729, "wrapS" : 10497, "wrapT" : 10497}, {"magFilter" : 9729, "minFilter" : 9729, "wrapS" : 10497, "wrapT" : 10497}], "scene" : 0, "scenes" : [{"nodes" : [0]}], "textures" : [{"sampler" : 0, "source" : 0}, {"sampler" : 1, "source" : 1}]}