{"asset": {"version": "2.0", "generator": "maya-glTFExport"}, "scene": 0, "scenes": [{"name": "defaultScene", "nodes": [0, 1]}], "nodes": [{"translation": [0.0, 0.0, 0.0], "rotation": [0.0, 0.0, 0.0, 1.0], "scale": [1.0, 1.0, 1.0], "mesh": 0}, {"translation": [0.0, 0.0, 0.0], "rotation": [0.0, 0.0, 0.0, 1.0], "scale": [1.0, 1.0, 1.0], "mesh": 1}], "meshes": [{"primitives": [{"mode": 4, "attributes": {"POSITION": 1, "NORMAL": 2, "TEXCOORD_0": 3}, "indices": 0, "material": 0}]}, {"primitives": [{"mode": 4, "attributes": {"POSITION": 5, "NORMAL": 6, "TEXCOORD_0": 7}, "indices": 4, "material": 0}]}], "materials": [{"pbrMetallicRoughness": {"baseColorFactor": [1.0, 1.0, 1.0, 1.0], "metallicFactor": 0, "roughnessFactor": 1}, "alphaMode": "OPAQUE"}], "buffers": [{"byteLength": 420576, "uri": "data:application/octet-stream;base64,"}], "bufferViews": [{"buffer": 0, "byteOffset": 0, "byteLength": 12000, "target": 34963}, {"buffer": 0, "byteOffset": 12000, "byteLength": 16368, "target": 34962}, {"buffer": 0, "byteOffset": 28368, "byteLength": 16368, "target": 34962}, {"buffer": 0, "byteOffset": 44736, "byteLength": 10912, "target": 34962}, {"buffer": 0, "byteOffset": 55648, "byteLength": 76704, "target": 34963}, {"buffer": 0, "byteOffset": 132352, "byteLength": 108084, "target": 34962}, {"buffer": 0, "byteOffset": 240436, "byteLength": 108084, "target": 34962}, {"buffer": 0, "byteOffset": 348520, "byteLength": 72056, "target": 34962}], "accessors": [{"bufferView": 0, "byteOffset": 0, "componentType": 5123, "count": 6000, "type": "SCALAR", "max": [1363], "min": [0]}, {"bufferView": 1, "byteOffset": 0, "componentType": 5126, "count": 1364, "type": "VEC3", "max": [5.091367721557617, -1.059147596359253, 5.234269142150879], "min": [-4.966880798339844, -2.4016966819763184, -4.823979377746582]}, {"bufferView": 2, "byteOffset": 0, "componentType": 5126, "count": 1364, "type": "VEC3"}, {"bufferView": 3, "byteOffset": 0, "componentType": 5126, "count": 1364, "type": "VEC2"}, {"bufferView": 4, "byteOffset": 0, "componentType": 5123, "count": 38352, "type": "SCALAR", "max": [9006], "min": [0]}, {"bufferView": 5, "byteOffset": 0, "componentType": 5126, "count": 9007, "type": "VEC3", "max": [3.7237207889556885, 10.749714851379395, 1.828944444656372], "min": [-2.9396884441375732, 0.35487642884254456, -1.7391529083251953]}, {"bufferView": 6, "byteOffset": 0, "componentType": 5126, "count": 9007, "type": "VEC3"}, {"bufferView": 7, "byteOffset": 0, "componentType": 5126, "count": 9007, "type": "VEC2"}]}