{"accessors" : [{"bufferView" : 0, "byteOffset" : 0, "componentType" : 5123, "count" : 6000, "type" : "SCALAR", "max" : [4983], "min" : [0]}, {"bufferView" : 1, "byteOffset" : 0, "componentType" : 5126, "count" : 4984, "type" : "VEC3", "max" : [5.091367721557617, -1.059147596359253, 5.234269142150879], "min" : [-4.966880798339844, -2.4016966819763184, -4.823979377746582], "name" : "POSITION"}, {"bufferView" : 1, "byteOffset" : 12, "componentType" : 5126, "count" : 4984, "type" : "VEC3", "max" : [1.0000044107437134, 1.0000044107437134, 1.0000044107437134], "min" : [-1.0000044107437134, -1.0000044107437134, -1.0000044107437134], "name" : "NORMAL"}, {"bufferView" : 1, "byteOffset" : 24, "componentType" : 5126, "count" : 4984, "type" : "VEC2", "max" : [0.875, -0], "min" : [0, -0.6076013445854187], "name" : "TEXCOORD_0"}, {"bufferView" : 0, "byteOffset" : 12000, "componentType" : 5123, "count" : 36060, "type" : "SCALAR", "max" : [29263], "min" : [0]}, {"bufferView" : 2, "byteOffset" : 0, "componentType" : 5126, "count" : 29264, "type" : "VEC3", "max" : [3.722107410430908, 10.747078895568848, 1.8259776830673218], "min" : [-2.938723087310791, 0.3552849292755127, -1.7348201274871826], "name" : "POSITION"}, {"bufferView" : 2, "byteOffset" : 12, "componentType" : 5126, "count" : 29264, "type" : "VEC3", "max" : [0.9994215369224548, 0.9999963045120239, 0.9997546076774597], "min" : [-0.9998014569282532, -1.0000044107437134, -0.9999861717224121], "name" : "NORMAL"}], "asset" : {"generator" : "Aspose.3D 22.1", "version" : "2.0"}, "buffers" : [{"uri" : "data:application/octet-stream;base64,", "byteLength" : 1141572}], "bufferViews" : [{"buffer" : 0, "byteOffset" : 0, "byteLength" : 84120, "target" : 34963}, {"buffer" : 0, "byteOffset" : 84124, "byteLength" : 192000, "byteStride" : 32, "target" : 34962}, {"buffer" : 0, "byteOffset" : 276128, "byteLength" : 865440, "byteStride" : 24, "target" : 34962}], "materials" : [{"name" : "", "pbrMetallicRoughness" : {"baseColorFactor" : [0.7115384340286255, 0.7115384340286255, 0.7115384340286255, 1], "metallicFactor" : 0, "roughnessFactor" : 0}, "emissiveFactor" : [0, 0, 0], "alphaMode" : "OPAQUE", "doubleSided" : false}, {"name" : "", "pbrMetallicRoughness" : {"baseColorFactor" : [0.7115384340286255, 0.7115384340286255, 0.7115384340286255, 1], "metallicFactor" : 0, "roughnessFactor" : 0}, "emissiveFactor" : [0, 0, 0], "alphaMode" : "OPAQUE", "doubleSided" : false}], "meshes" : [{"primitives" : [{"attributes" : {"POSITION" : 1, "NORMAL" : 2, "TEXCOORD_0" : 3}, "indices" : 0, "material" : 0, "mode" : 4}], "name" : ""}, {"primitives" : [{"attributes" : {"POSITION" : 5, "NORMAL" : 6}, "indices" : 4, "material" : 1, "mode" : 4}], "name" : ""}], "nodes" : [{"mesh" : 0, "name" : "Base"}, {"mesh" : 1, "name" : "Question1"}], "scene" : 0, "scenes" : [{"nodes" : [0, 1]}]}